<?xml version="1.0" standalone="no"?>
<!DOCTYPE svg PUBLIC "-//W3C//DTD SVG 20010904//EN"
 "http://www.w3.org/TR/2001/REC-SVG-20010904/DTD/svg10.dtd">
<svg version="1.0" xmlns="http://www.w3.org/2000/svg"
 width="148.000000pt" height="148.000000pt" viewBox="0 0 148.000000 148.000000"
 preserveAspectRatio="xMidYMid meet">
<metadata>
Created by potrace 1.14, written by Peter Selinger 2001-2017
</metadata>
<g transform="translate(0.000000,148.000000) scale(0.100000,-0.100000)"
fill="#000000" stroke="none">
<path d="M120 1473 c-8 -3 -27 -17 -42 -31 l-28 -26 0 -676 0 -676 31 -30 30
-29 492 -3 c339 -2 504 0 530 8 66 19 77 51 77 216 0 113 -3 143 -14 147 -8 3
-17 3 -20 0 -3 -4 -6 -68 -6 -142 0 -199 6 -194 -255 -189 l-160 3 45 21 c32
16 130 107 338 316 282 283 292 295 292 332 0 33 -7 46 -40 78 -75 70 -64 78
-402 -259 l-298 -297 -42 -98 -43 -98 -235 0 c-246 1 -254 2 -278 47 -9 16
-12 170 -12 562 l0 541 545 0 545 0 0 -201 c0 -186 1 -200 18 -197 16 3 17 27
20 301 2 255 0 302 -14 328 -30 59 -35 59 -571 58 -268 0 -495 -3 -503 -6z
m1027 -56 c13 -13 19 -38 21 -97 l4 -80 -541 0 -541 0 0 78 c0 42 4 82 8 88
22 32 47 34 539 31 457 -2 494 -3 510 -20z m214 -656 c36 -36 37 -60 4 -91
l-25 -24 -46 45 -45 44 31 28 c38 34 45 34 81 -2z m-101 -100 c43 -42 47 -53
27 -69 -10 -9 -23 -1 -57 33 -37 37 -41 46 -30 60 7 8 14 15 16 15 2 0 22 -17
44 -39z m-58 -68 l38 -37 -202 -203 c-112 -112 -206 -203 -211 -203 -4 0 -24
16 -44 36 l-36 36 204 204 c112 112 206 204 208 204 3 0 22 -17 43 -37z m-443
-447 c32 -33 32 -35 14 -45 -17 -8 -25 -5 -47 18 -17 18 -24 34 -20 44 9 24
16 22 53 -17z m-65 -65 c3 -5 -1 -11 -9 -15 -9 -3 -15 0 -15 9 0 16 16 20 24
6z"/>
<path d="M175 1020 c-3 -5 -3 -14 0 -20 4 -6 167 -10 456 -10 424 0 450 1 447
18 -3 16 -34 17 -450 20 -293 1 -449 -1 -453 -8z"/>
<path d="M615 873 c-231 -2 -426 -5 -434 -8 -11 -4 -11 -8 -1 -20 11 -13 72
-15 454 -13 433 3 441 3 441 23 0 13 -7 20 -20 20 -11 0 -209 -1 -440 -2z"/>
<path d="M175 710 c-3 -5 -3 -14 0 -20 4 -6 167 -10 456 -10 442 0 449 0 449
20 0 20 -7 20 -449 20 -289 0 -452 -4 -456 -10z"/>
<path d="M181 561 c-41 -26 7 -31 315 -31 295 0 315 1 312 18 -3 16 -27 17
-308 19 -168 2 -311 -1 -319 -6z"/>
<path d="M175 399 c-16 -25 20 -29 246 -27 200 3 234 5 234 18 0 13 -34 15
-237 18 -165 2 -239 -1 -243 -9z"/>
<path d="M175 250 c-15 -25 13 -30 166 -30 152 0 159 1 159 20 0 19 -7 20
-159 20 -96 0 -162 -4 -166 -10z"/>
</g>
</svg>
